HIERARCHY
ROOT root
{
	OFFSET 0.000000 0.000000 0.000000
	CHANNELS 6 Xposition Yposition Zposition Zrotation Yrotation Xrotation
	JOINT lhip
	{
		OFFSET 0.058581 -0.082280 -0.017664
		CHANNELS 3 Zrotation Yrotation Xrotation
		JOINT lknee
		{
			OFFSET 0.043451 -0.386469 0.008037
			CHANNELS 3 Zrotation Yrotation Xrotation
			JOINT lankle
			{
				OFFSET -0.014790 -0.426874 -0.037428
				CHANNELS 3 Zrotation Yrotation Xrotation
				JOINT ltoe
				{
					OFFSET 0.041054 -0.060286 0.122042
					CHANNELS 3 Zrotation Yrotation Xrotation
					End Site
					{
						OFFSET 0.000000 0.000000 0.000000
					}
				}
			}
		}
	}
	JOINT rhip
	{
		OFFSET -0.060310 -0.090513 -0.013543
		CHANNELS 3 Zrotation Yrotation Xrotation
		JOINT rknee
		{
			OFFSET -0.043257 -0.383688 -0.004843
			CHANNELS 3 Zrotation Yrotation Xrotation
			JOINT rankle
			{
				OFFSET 0.019056 -0.420046 -0.034562
				CHANNELS 3 Zrotation Yrotation Xrotation
				JOINT rtoe
				{
					OFFSET -0.034840 -0.062106 0.130323
					CHANNELS 3 Zrotation Yrotation Xrotation
					End Site
					{
						OFFSET 0.000000 0.000000 0.000000
					}
				}
			}
		}
	}
	JOINT lowerback
	{
		OFFSET 0.004439 0.124404 -0.038385
		CHANNELS 3 Zrotation Yrotation Xrotation
		JOINT upperback
		{
			OFFSET 0.004488 0.137956 0.026820
			CHANNELS 3 Zrotation Yrotation Xrotation
			JOINT chest
			{
				OFFSET -0.002265 0.056032 0.002855
				CHANNELS 3 Zrotation Yrotation Xrotation
				JOINT lowerneck
				{
					OFFSET -0.013390 0.211636 -0.033468
					CHANNELS 3 Zrotation Yrotation Xrotation
					JOINT upperneck
					{
						OFFSET 0.010113 0.088937 0.050410
						CHANNELS 3 Zrotation Yrotation Xrotation
						End Site
						{
							OFFSET 0.000000 0.000000 0.000000
						}
					}
				}
				JOINT lclavicle
				{
					OFFSET 0.071702 0.114000 -0.018898
					CHANNELS 3 Zrotation Yrotation Xrotation
					JOINT lshoulder
					{
						OFFSET 0.122921 0.045205 -0.019046
						CHANNELS 3 Zrotation Yrotation Xrotation
						JOINT lelbow
						{
							OFFSET 0.255332 -0.015649 -0.022946
							CHANNELS 3 Zrotation Yrotation Xrotation
							JOINT lwrist
							{
								OFFSET 0.265709 0.012698 -0.007375
								CHANNELS 3 Zrotation Yrotation Xrotation
								End Site
								{
									OFFSET 0.000000 0.000000 0.000000
								}
							}
						}
					}
				}
				JOINT rclavicle
				{
					OFFSET -0.082954 0.112472 -0.023707
					CHANNELS 3 Zrotation Yrotation Xrotation
					JOINT rshoulder
					{
						OFFSET -0.113228 0.046853 -0.008472
						CHANNELS 3 Zrotation Yrotation Xrotation
						JOINT relbow
						{
							OFFSET -0.260127 -0.014369 -0.031269
							CHANNELS 3 Zrotation Yrotation Xrotation
							JOINT rwrist
							{
								OFFSET -0.269108 0.006794 -0.006027
								CHANNELS 3 Zrotation Yrotation Xrotation
								End Site
								{
									OFFSET 0.000000 0.000000 0.000000
								}
							}
						}
					}
				}
			}
		}
	}
}
MOTION
Frames: 17
Frame Time: 0.033333
1.188230 0.651644 0.892603 -81.140915 6.464337 85.760921 1.284299 -13.182223 -33.322835 -16.745421 -7.050254 56.833897 6.952138 1.156829 -26.909030 0.000000 -0.000000 0.000000 3.282812 -1.616739 -22.362035 -8.578942 -8.782106 54.032857 -0.769913 -21.568945 -26.829968 0.000000 -0.000000 0.000000 -5.625999 10.855092 28.242236 3.418148 -3.741912 -2.741819 2.602412 -0.801728 2.304273 -2.414390 2.770734 -19.888818 12.412152 -18.814438 -17.250468 -2.956057 -28.673484 -12.023878 -11.801352 -32.668267 -8.001336 12.305604 -53.522987 -5.051962 -17.496621 -6.463170 -7.827893 17.807167 18.709068 3.517121 55.808749 -5.130217 18.067720 -104.103566 77.168327 -74.526420 -2.750263 0.394555 -21.655125 
1.190547 0.639287 0.901169 -77.853776 6.297564 87.838371 1.832391 -14.718308 -34.684203 -18.101457 -6.479534 53.449657 5.311154 -0.194778 -24.266598 0.000000 -0.000000 0.000000 1.719963 -0.927263 -22.319658 -7.531338 -9.808394 50.499896 -0.942347 -23.455041 -24.924485 0.000000 -0.000000 0.000000 -3.822284 9.963682 26.879142 3.515546 -4.320038 -3.649812 1.826953 0.294378 1.944382 -2.160702 1.165928 -18.164799 12.376121 -19.101751 -18.785782 -6.178149 -26.215608 -9.890835 -13.569209 -25.407091 -6.276208 8.744325 -46.249597 -0.432103 -16.511334 -4.887923 -1.039952 18.325749 17.478039 4.131062 55.197474 -4.768177 17.914114 -124.593218 77.429566 -95.245701 -12.300291 -1.694528 -22.126829 
1.189715 0.621280 0.924794 -75.465615 6.337122 88.054783 -0.279185 -13.212115 -30.043886 -17.555835 -10.248334 46.379921 2.721986 -1.899430 -22.031592 0.000000 -0.000000 0.000000 0.644501 -1.937194 -17.537448 -7.466775 -11.769730 42.501306 -0.666562 -22.461262 -21.486182 0.000000 -0.000000 0.000000 -1.163887 9.445138 25.515360 3.190168 -4.745625 -3.310113 1.145284 0.348812 2.134797 -1.691042 -0.745523 -17.804165 11.447463 -18.800716 -17.574963 -8.887538 -22.617752 -9.068463 -18.485262 -21.032916 -3.461850 4.044498 -39.790099 1.744250 -20.985202 -2.010043 0.863801 18.365791 14.905464 2.119088 55.241035 -5.521333 18.923649 -148.016108 76.356211 -118.800890 -3.156758 0.695219 -20.359812 
1.186657 0.599849 0.954927 -75.923536 5.115942 88.913642 -1.730557 -9.962617 -24.517346 -14.018019 -9.688871 34.896126 -0.430468 -1.370590 -20.114980 0.000000 -0.000000 0.000000 -0.916358 -2.443541 -13.722571 -7.697210 -12.192314 32.864891 0.329811 -20.669096 -19.199357 0.000000 -0.000000 0.000000 -0.510351 8.958680 21.690040 1.815358 -4.284406 -2.529388 0.162771 0.788494 1.428202 -1.888769 -2.738490 -13.948245 11.003727 -18.508867 -16.233262 -12.601219 -20.248813 -6.987589 -22.694073 -17.655255 -1.003793 0.035470 -28.754458 5.252040 -19.328058 1.058404 8.460381 18.800130 13.348147 2.651346 56.150723 -5.497765 21.293917 -174.624312 77.706551 -146.049696 -5.876887 0.675927 -21.956540 
1.186944 0.581000 0.982045 -78.154071 3.653209 91.108508 -2.285794 -6.724534 -22.019967 -5.326644 0.480081 25.918994 2.311418 10.206717 -20.617536 0.000000 -0.000000 0.000000 -2.084472 -2.258562 -14.847961 -7.382539 -11.049478 28.533425 1.131185 -21.007862 -19.854558 0.000000 -0.000000 0.000000 -2.167433 8.651106 17.564534 0.654217 -3.419636 -2.732228 -0.380830 1.101644 0.434215 -0.866087 -4.718345 -12.312504 10.779699 -18.174467 -13.701363 -16.299909 -18.182910 -3.457698 -26.199776 -15.518171 -0.390450 -0.601286 -15.604483 7.528098 -15.836328 2.629886 18.040230 21.008261 12.319415 4.580109 57.297198 -3.740017 23.423450 167.521325 80.650489 -165.499238 -7.375126 2.113489 -24.569904 
1.193475 0.566982 1.000488 -79.587565 3.640584 93.692470 -0.006942 -6.180472 -24.513070 -1.308403 1.993169 30.074354 5.385647 12.911186 -20.370256 0.000000 -0.000000 0.000000 -1.683047 -2.114752 -19.804560 -5.527525 -9.749772 32.502128 1.450658 -17.655183 -19.488200 0.000000 -0.000000 0.000000 -4.760334 8.290184 14.182626 1.184748 -3.375342 -0.586539 0.054643 1.202014 -2.676355 1.194820 -5.946325 -11.685397 12.250121 -16.170524 -14.197833 -21.003196 -18.087761 0.964133 -28.155606 -11.024251 -1.116518 1.787389 -11.978341 4.783272 -23.669993 9.232259 19.936503 24.588944 13.671860 7.396779 57.223198 -2.198640 20.963720 178.703799 85.559115 -155.296725 12.957530 5.415143 -25.361428 
1.201075 0.559037 1.005227 -79.975363 5.298126 93.192836 6.355275 -8.349282 -25.507907 -2.715696 -0.093231 38.872544 4.632995 13.063551 -14.823028 0.000000 -0.000000 0.000000 0.267106 -0.911294 -21.807542 -2.772619 -10.907197 38.552532 0.924179 -15.028413 -19.458153 0.000000 -0.000000 0.000000 -6.374772 7.406641 15.577136 2.207857 -2.160620 1.527628 1.046730 0.785861 -5.272696 4.770741 -4.466856 -15.824366 11.290902 -17.171819 -10.972669 -24.624064 -16.455111 2.198599 -30.818865 -8.181675 0.170300 4.067927 -13.343794 2.043633 -25.887454 7.951006 15.323052 27.751538 14.975530 7.286880 56.399695 0.353682 19.949833 -23.311472 84.217148 2.543376 20.805770 6.222778 -21.924050 
1.203494 0.550353 0.993417 -77.565438 7.280619 91.463623 10.305765 -9.322837 -20.684956 -5.492778 -8.668998 35.257138 -0.791526 9.118868 -17.223626 0.000000 -0.000000 0.000000 2.208188 -2.679779 -20.703647 -0.397474 -14.236685 41.735182 2.272845 -11.528134 -20.258896 0.000000 -0.000000 0.000000 -5.796661 6.324933 18.285003 3.148071 -2.227145 1.501026 1.477143 -0.123674 -4.898492 7.517048 -1.669571 -20.299776 8.111785 -20.249500 -6.399084 -27.065534 -13.903087 0.920955 -34.112202 -7.571683 3.832540 4.200201 -14.909942 5.067157 -21.772141 4.339407 11.487057 29.942017 15.730918 5.715293 55.178908 3.412520 20.622265 -6.256024 70.412543 18.384600 9.050233 4.009469 -17.241370 
1.206941 0.538052 0.972466 -75.189384 8.417253 91.152925 9.380897 -6.493175 -19.972616 -5.938806 -13.277553 34.958001 2.089849 8.623671 -23.849728 0.000000 -0.000000 0.000000 3.449187 -4.427319 -21.417072 0.874027 -15.973792 44.136080 2.730163 -9.603568 -21.455100 0.000000 -0.000000 0.000000 -4.622583 4.861176 19.197937 3.348896 -2.275470 -0.654502 1.652188 -0.553364 -1.949996 8.320056 -1.240553 -22.472340 6.528610 -21.409113 -5.548255 -26.540333 -12.531101 -0.251609 -39.920294 -8.509359 6.903093 3.080412 -14.654312 14.305996 -19.608973 4.925870 13.104974 29.770102 15.992202 4.117851 56.197840 7.063187 19.270825 -4.871485 54.954966 19.563951 4.308112 2.401050 -9.627689 
1.212569 0.524303 0.958323 -74.505681 7.188275 91.950237 8.222174 -9.684062 -24.175042 -7.889488 -10.279083 39.200126 1.679194 9.963870 -22.519641 0.000000 -0.000000 0.000000 2.959939 -2.505396 -23.068850 2.026891 -14.817340 43.084250 2.294842 -8.557488 -22.001973 0.000000 -0.000000 0.000000 -5.331382 5.525400 18.001694 3.431731 -2.422065 0.068298 1.525133 -0.611426 -1.294638 8.176232 -1.618146 -22.106225 7.433458 -22.326614 -9.062243 -27.676950 -14.553623 1.570878 -43.464558 -8.794718 10.233623 3.108177 -13.817967 16.458844 -15.750240 3.984378 14.195384 31.191457 17.391386 5.836219 55.062484 9.160356 17.551042 -9.032982 44.101349 15.048920 -0.498114 -1.565449 -5.409639 
1.214154 0.509458 0.959658 -75.028495 5.718256 90.995925 6.180574 -9.214451 -21.775817 -8.953697 -9.626699 36.667876 2.745897 9.535127 -22.725400 0.000000 -0.000000 0.000000 2.652247 -1.823991 -21.155279 3.214497 -12.757251 39.671673 3.055169 -9.195242 -21.281181 0.000000 -0.000000 0.000000 -5.775086 5.959335 17.053471 2.524210 -1.509827 1.286888 1.219811 -0.455777 -1.233926 7.928229 -3.218709 -21.132836 7.547756 -21.800121 -8.122327 -29.206973 -14.984270 2.407779 -45.569839 -8.865089 12.353213 1.606667 -13.329751 15.328865 -8.106949 1.055920 16.934846 31.344363 18.163302 6.853760 54.599822 8.289775 16.902816 -9.962350 38.078399 10.130829 -5.356290 -1.418971 -1.845918 
1.214232 0.496759 0.971585 -76.092030 4.539519 90.641719 3.895283 -6.153370 -17.899286 -8.072531 -10.827797 30.602748 1.984699 7.136754 -20.436689 0.000000 -0.000000 0.000000 4.129261 -2.381360 -18.997103 1.840703 -10.495050 34.638017 3.241839 -9.732552 -20.588516 0.000000 -0.000000 0.000000 -4.820870 6.154585 17.441122 0.995162 -0.593821 -2.651680 0.206293 -0.524923 0.516718 8.014374 -3.870361 -19.285290 5.305127 -21.526773 -5.376409 -29.452342 -11.407295 0.959955 -47.911260 -8.681076 13.560515 -1.795766 -13.143060 20.115492 1.892311 -4.225847 18.822177 29.648534 14.960693 3.563559 56.283402 5.710962 17.875890 -5.963961 35.250284 13.956939 -2.869011 2.214396 1.854201 
1.212345 0.484327 0.988822 -76.414351 3.501613 91.970255 2.478565 -5.564695 -14.435858 -6.188636 -10.471504 21.699966 -0.515617 5.663438 -17.088478 0.000000 -0.000000 0.000000 5.373685 -2.276746 -17.166560 0.038811 -10.398289 27.855546 3.574469 -10.075072 -19.195881 0.000000 -0.000000 0.000000 -4.592834 5.390308 13.989343 0.446963 -0.582438 -2.495430 -0.348715 -0.007351 0.249241 6.974240 -4.710273 -16.491568 4.806699 -20.444423 -5.033457 -29.177188 -7.806503 0.321037 -50.789430 -8.136621 14.850532 -2.606901 -14.293312 24.007208 -2.407023 -3.007045 18.043899 27.965420 11.406803 2.459727 56.910950 4.285405 18.858140 -3.252394 35.917102 19.673739 2.808742 1.332317 1.856568 
1.211974 0.472658 1.003310 -75.629915 3.056239 92.928786 0.646309 -4.521445 -10.863000 -1.842385 -7.886681 13.544677 -0.567797 8.537979 -14.665962 0.000000 -0.000000 0.000000 6.505291 -2.031930 -15.065826 -0.698318 -10.901088 22.064975 3.265366 -11.112686 -16.264549 0.000000 -0.000000 0.000000 -3.989860 4.210246 12.088688 0.091591 -1.340060 -2.556196 -0.417257 0.220703 -0.637231 6.481111 -5.913819 -14.083880 5.448281 -18.428280 -5.206063 -28.693816 -6.480316 1.277657 -52.605551 -7.301019 15.015657 -3.176761 -14.814624 26.232370 -6.098142 -1.231480 17.246189 25.995654 10.223572 3.060951 57.773763 2.968028 18.940785 -2.813898 36.322092 20.778150 4.284245 1.246898 2.202840 
1.213744 0.462342 1.009253 -75.404081 2.808392 93.800071 0.005424 -2.211858 -9.406436 0.766888 -1.049710 9.595597 0.584620 11.537506 -11.276185 0.000000 -0.000000 0.000000 7.327019 -1.326523 -13.965506 -1.028773 -10.528877 18.793564 2.747117 -12.295468 -14.539961 0.000000 -0.000000 0.000000 -4.023822 3.434884 10.657591 0.137225 -1.636645 -2.518642 -0.134989 -0.438222 -1.542374 6.418550 -6.579144 -13.347458 5.616418 -16.758591 -4.118030 -28.672449 -6.524540 2.659406 -51.790981 -6.887614 14.795293 -3.854606 -14.939662 25.699750 -6.474088 -1.739978 16.655531 25.433054 9.720814 3.821830 56.617673 2.818727 19.222286 -1.571740 35.562033 21.368043 3.762395 1.950200 2.756369 
1.215873 0.453202 1.003556 -75.610969 2.276997 94.184025 -0.751822 -1.407452 -8.776371 -0.387993 -1.923988 7.100930 1.611616 10.655010 -9.738054 0.000000 -0.000000 0.000000 7.040410 -0.844962 -13.353390 -1.754927 -9.590491 17.025282 2.988486 -11.722646 -12.881144 0.000000 -0.000000 0.000000 -4.490995 2.348658 10.021406 0.457365 -1.655765 -3.301107 -0.129578 -0.377049 -1.348690 6.398800 -6.448974 -13.141514 4.713074 -16.655279 -1.835773 -28.532120 -6.990046 2.288401 -49.816339 -6.948597 15.311655 -5.146272 -13.535020 25.751629 -6.696091 -3.048790 18.070756 25.974190 9.906377 3.628272 54.788661 2.644816 19.986710 -0.995466 33.645997 22.180626 4.018220 1.969028 4.913057 
1.215940 0.445795 0.993293 -75.677354 1.479255 92.977954 -1.994159 -0.361780 -8.087104 -0.965804 -2.109754 8.045567 1.271307 10.384376 -9.918267 0.000000 -0.000000 0.000000 5.981411 -1.216548 -11.166994 -2.803838 -8.415424 15.040727 3.060368 -12.222297 -13.074271 0.000000 -0.000000 0.000000 -4.510514 2.159283 10.804312 0.640344 -1.719121 -4.816295 -0.475584 -0.039000 0.662439 5.814099 -5.686957 -13.730191 3.385726 -17.600985 0.476198 -27.783819 -7.759716 1.004437 -48.431834 -8.281942 15.075607 -5.657663 -11.200570 26.624823 -5.787234 -4.069663 20.336942 26.434674 9.518410 1.763921 54.250218 2.259300 20.016108 -1.781214 31.523260 21.640524 3.594133 1.802448 6.353897 
